<svg 
    xmlns="http://www.w3.org/2000/svg" 
    xmlns:xlink="http://www.w3.org/1999/xlink" 
    version="1.1" 
    x="0px" 
    y="0px" 
    viewBox="0 0 100 125" 
    style="enable-background:new 0 0 100 100;" 
    xml:space="preserve">
    <g>
        <path d="M78,10H22c-6.6,0-12,5.4-12,12v56c0,6.6,5.4,12,12,12h56c6.6,0,12-5.4,12-12V22C90,15.4,84.6,10,78,10z M70.7,60.3   c3.1,3.1,3.1,8.2,0,11.3C69.1,73.2,67,74,65,74s-4.1-0.8-5.7-2.3L50,62.3l-9.3,9.3C39.1,73.2,37,74,35,74s-4.1-0.8-5.7-2.3   c-3.1-3.1-3.1-8.2,0-11.3l9.3-9.3l-9.3-9.3c-3.1-3.1-3.1-8.2,0-11.3c3.1-3.1,8.2-3.1,11.3,0l9.3,9.3l9.3-9.3   c3.1-3.1,8.2-3.1,11.3,0c3.1,3.1,3.1,8.2,0,11.3L61.3,51L70.7,60.3z"/>
    </g>
</svg>