<svg xmlns="http://www.w3.org/2000/svg" xmlns:xlink="http://www.w3.org/1999/xlink" viewBox="0 0 20 25" version="1.1" x="0px" y="0px"><title>help</title><desc>Created with Sketch.</desc><g stroke="none" stroke-width="1" fill="none" fill-rule="evenodd"><g transform="translate(-460.000000, -1980.000000)" fill="#000000"><g transform="translate(40.000000, 1680.000000)"><path d="M430,320 C435.522847,320 440,315.522847 440,310 C440,304.477153 435.522847,300 430,300 C424.477153,300 420,304.477153 420,310 C420,315.522847 424.477153,320 430,320 Z M430,319 C434.970563,319 439,314.970563 439,310 C439,305.029437 434.970563,301 430,301 C425.029437,301 421,305.029437 421,310 C421,314.970563 425.029437,319 430,319 Z M428.59102,314.833257 C428.59102,315.594916 429.132644,316.153465 429.843525,316.153465 C430.554406,316.153465 431.112955,315.594916 431.112955,314.833257 C431.112955,314.071599 430.554406,313.51305 429.843525,313.51305 C429.132644,313.51305 428.59102,314.071599 428.59102,314.833257 Z M428.980312,312.311322 L430.689812,312.311322 C430.452851,310.127901 433.093267,309.366243 433.093267,307.216673 C433.093267,305.371767 431.789985,304.407 429.962005,304.407 C428.726426,304.407 427.727807,305.016327 427,305.87954 L428.083248,306.878158 C428.574094,306.336535 429.132644,305.99802 429.826599,305.99802 C430.689812,305.99802 431.197584,306.539644 431.197584,307.352079 C431.197584,308.875396 428.624871,309.840163 428.980312,312.311322 Z"/></g></g></g>
</svg>