<svg xmlns:dc="http://purl.org/dc/elements/1.1/" xmlns:cc="http://creativecommons.org/ns#" xmlns:rdf="http://www.w3.org/1999/02/22-rdf-syntax-ns#" xmlns:svg="http://www.w3.org/2000/svg" xmlns="http://www.w3.org/2000/svg" xmlns:sodipodi="http://sodipodi.sourceforge.net/DTD/sodipodi-0.dtd" xmlns:inkscape="http://www.inkscape.org/namespaces/inkscape" version="1.1" x="0px" y="0px" viewBox="0 0 100 125"><g transform="translate(0,-952.36218)"><path style="text-indent:0;text-transform:none;direction:ltr;block-progression:tb;baseline-shift:baseline;color:#000000;enable-background:accumulate;" d="m 49.78125,966.36415 a 4.6738692,4.5486552 0 0 0 -3.84375,2.2812 L 8.625,1031.5517 a 4.6738692,4.5486552 0 0 0 4.0625,6.8125 l 74.625,0 a 4.6738692,4.5486552 0 0 0 4.0625,-6.8125 L 54.03125,968.64535 a 4.6738692,4.5486552 0 0 0 -4.25,-2.2812 z m 0.21875,16 c 3.31371,0 6,2.6863 6,6 l -1,20.00005 c 0,2.7614 -2.23857,5 -5,5 -2.76143,0 -5,-2.2386 -5,-5 l -1,-20.00005 c 0,-3.3137 2.68629,-6 6,-6 z m 0,34.00005 c 3.86598,0 7,3.134 7,7 0,3.8659 -3.13402,7 -7,7 -3.86598,0 -7,-3.1341 -7,-7 0,-3.866 3.13402,-7 7,-7 z" fill="#FFFF00" stroke="none" marker="none" visibility="visible" display="inline" overflow="visible"/></g>
</svg>